<?xml version="1.0" standalone="no"?>
<!DOCTYPE svg PUBLIC "-//W3C//DTD SVG 20010904//EN"
 "http://www.w3.org/TR/2001/REC-SVG-20010904/DTD/svg10.dtd">
<svg version="1.0" xmlns="http://www.w3.org/2000/svg"
 width="736.000000pt" height="736.000000pt" viewBox="0 0 736.000000 736.000000"
 preserveAspectRatio="xMidYMid meet">

<g transform="translate(0.000000,736.000000) scale(0.100000,-0.100000)"
fill="#000000" stroke="none">
<path d="M0 3680 l0 -3680 3680 0 3680 0 0 3680 0 3680 -3680 0 -3680 0 0
-3680z m3880 3090 c479 -55 907 -197 1320 -438 516 -301 900 -717 1218 -1322
208 -396 325 -923 324 -1453 0 -103 -3 -205 -7 -227 -4 -22 -6 -43 -5 -46 1
-4 -3 -10 -9 -14 -7 -3 -14 -30 -18 -58 -3 -29 -9 -52 -13 -52 -4 0 -10 -11
-12 -25 -3 -13 -1 -22 3 -19 12 7 1 -48 -26 -131 -17 -50 -20 -74 -13 -83 8
-9 7 -11 -6 -6 -19 7 -21 -7 -3 -25 10 -10 9 -11 -4 -6 -12 4 -18 -1 -21 -19
-5 -27 6 -36 16 -13 3 6 3 -1 0 -18 -8 -44 -63 -224 -81 -268 -9 -20 -14 -40
-11 -43 8 -7 62 133 109 281 21 66 38 113 38 105 2 -42 -93 -318 -151 -440
-22 -47 -53 -119 -69 -160 -16 -41 -39 -92 -50 -114 -12 -21 -16 -35 -9 -31 6
4 -1 -12 -16 -36 -60 -96 -173 -265 -190 -286 -36 -41 -49 -58 -88 -113 -22
-30 -62 -77 -90 -105 -28 -27 -69 -72 -91 -99 -81 -101 -253 -262 -387 -363
-49 -36 -88 -70 -88 -75 0 -4 -6 -8 -13 -8 -7 0 -24 -11 -39 -25 -15 -14 -30
-25 -32 -25 -3 0 -38 -21 -78 -47 -100 -64 -371 -204 -438 -226 -30 -10 -64
-22 -75 -27 -115 -51 -234 -91 -260 -86 -21 4 -26 3 -15 -3 8 -6 11 -13 7 -17
-3 -4 -13 -1 -22 6 -11 9 -15 9 -15 1 0 -7 -5 -9 -11 -5 -6 3 -15 0 -20 -7 -5
-8 -9 -9 -9 -3 0 7 -35 3 -101 -13 -56 -13 -103 -22 -105 -20 -2 1 54 20 124
41 152 45 373 131 497 193 111 56 297 164 292 170 -2 2 -40 -17 -83 -43 -164
-98 -484 -239 -656 -289 -118 -35 -119 -30 -3 14 102 38 149 60 129 61 -7 0
-82 -18 -168 -39 -187 -48 -246 -58 -246 -42 0 7 -17 9 -47 6 -27 -3 -66 -7
-88 -10 -22 -2 -56 -7 -76 -10 -22 -4 -40 -2 -44 4 -4 7 4 11 19 11 14 0 60 9
101 21 72 19 161 38 198 42 9 1 17 4 17 8 0 4 15 11 33 14 64 14 274 83 377
124 165 66 421 203 590 316 441 295 811 700 1028 1126 70 138 79 159 132 292
38 97 113 355 134 462 42 214 50 316 50 605 1 305 -8 390 -60 623 -121 537
-417 1062 -833 1477 -184 184 -302 277 -530 420 -444 277 -995 430 -1546 430
-134 0 -188 -4 -395 -26 -70 -7 -179 -29 -302 -59 -521 -130 -971 -388 -1368
-785 -393 -392 -647 -841 -790 -1397 -90 -345 -110 -692 -66 -1109 17 -154 24
-184 37 -162 6 9 9 6 9 -12 0 -58 106 -416 160 -545 7 -16 15 -39 17 -49 2
-11 13 -34 24 -53 12 -19 19 -37 16 -40 -6 -5 -107 200 -107 216 0 14 -63 182
-66 178 -2 -2 14 -57 35 -123 40 -122 124 -308 135 -297 3 4 6 -1 6 -9 0 -9
-6 -18 -14 -21 -7 -3 -13 0 -13 6 1 7 -22 60 -50 119 -29 59 -64 149 -79 200
-15 51 -49 158 -76 237 -26 79 -47 146 -45 148 2 2 12 -17 22 -42 29 -77 26
-45 -5 45 -22 63 -28 75 -25 45 l5 -40 -11 35 c-6 19 -19 62 -29 95 -15 47
-18 52 -13 20 18 -132 167 -599 241 -756 37 -80 60 -140 49 -129 -44 44 -218
509 -287 770 -27 102 -40 104 -21 4 5 -27 12 -69 16 -94 4 -24 11 -52 16 -62
7 -13 6 -16 -4 -12 -8 3 -14 10 -14 17 -2 27 -21 108 -27 115 -16 16 11 -95
55 -228 27 -79 49 -146 49 -149 0 -3 -7 4 -15 15 -19 25 -19 12 1 -34 9 -20
23 -59 31 -87 8 -27 26 -79 39 -113 42 -106 20 -80 -35 42 -127 280 -226 664
-248 961 -8 107 -8 395 1 460 24 190 39 278 56 323 11 30 18 58 14 63 -3 5 0
9 6 9 7 0 9 8 5 19 -7 23 5 77 14 63 3 -6 7 11 8 36 2 50 74 288 117 387 14
33 26 56 26 50 0 -13 20 17 20 30 0 6 -5 3 -10 -5 -37 -58 41 123 112 259 57
109 201 338 227 361 9 8 24 25 32 37 21 31 196 229 266 301 7 8 11 18 7 23 -3
5 0 8 7 7 7 -2 13 3 14 9 0 7 12 26 28 42 15 16 27 34 27 40 0 6 4 11 9 11 5
0 35 25 68 56 104 99 323 270 323 251 0 -2 -49 -41 -110 -86 -111 -84 -345
-299 -335 -309 3 -3 35 24 72 59 213 203 432 359 753 538 91 51 164 97 162
103 -2 6 4 8 14 4 9 -4 32 2 51 14 19 11 41 20 49 20 8 0 14 5 14 11 0 5 4 8
9 4 5 -3 12 -1 15 4 11 17 234 83 258 76 19 -5 20 -4 8 5 -12 9 -8 10 18 5 21
-4 32 -3 32 5 0 6 4 9 10 5 5 -3 26 2 47 10 43 19 206 55 237 54 12 0 -28 -11
-88 -24 -59 -13 -111 -27 -115 -31 -3 -4 7 -4 22 0 137 33 284 48 586 61 69 3
126 7 128 8 3 3 69 -3 243 -23z m83 13 c-7 -2 -19 -2 -25 0 -7 3 -2 5 12 5 14
0 19 -2 13 -5z m137 -13 c89 -14 213 -42 223 -50 4 -4 -34 1 -85 11 -51 11
-127 24 -168 30 -41 6 -77 13 -79 15 -7 7 41 4 109 -6z m347 -81 c36 -10 68
-21 72 -25 3 -4 -1 -5 -9 -2 -8 3 -46 13 -85 23 -38 10 -74 22 -80 28 -6 6 -2
7 14 2 12 -4 52 -15 88 -26z m178 -56 c44 -14 76 -28 70 -29 -5 -2 -46 10 -90
26 -101 36 -87 39 20 3z m170 -63 c13 -6 15 -9 5 -9 -8 0 -22 4 -30 9 -18 12
-2 12 25 0z m-2465 -15 c0 -8 -182 -97 -187 -91 -3 2 37 25 89 50 104 50 98
48 98 41z m-210 -106 c-8 -5 -51 -31 -95 -57 -44 -26 -94 -56 -110 -68 -33
-23 -63 -40 -55 -32 33 37 238 165 265 166 6 1 3 -4 -5 -9z m2743 -234 c57
-32 57 -33 97 -135 18 -47 49 -116 67 -154 58 -116 49 -226 -46 -526 -34 -107
-42 -103 -11 5 53 182 87 383 73 424 -3 9 -33 79 -66 155 -46 105 -71 149
-100 178 -22 21 -43 38 -48 38 -8 0 -119 -164 -119 -176 0 -3 -12 -22 -27 -42
l-28 -36 35 25 c41 31 111 49 90 24 -7 -8 -17 -12 -24 -8 -6 3 -8 2 -3 -2 4
-5 -1 -17 -10 -28 -18 -19 -17 -20 7 -6 14 7 27 14 30 14 3 0 16 7 30 15 14 8
33 13 43 11 10 -1 26 3 35 10 10 8 9 4 -4 -11 -35 -42 -39 -57 -6 -26 33 31
53 28 44 -6 -3 -14 -1 -19 6 -14 6 3 14 1 18 -5 4 -7 3 -10 -2 -7 -5 4 -10
-45 -11 -112 -1 -107 -19 -217 -41 -255 -4 -7 -7 28 -8 79 -1 51 -4 105 -8
119 -5 21 -3 27 11 28 17 1 17 2 1 6 -10 2 -19 11 -19 19 -1 8 -2 24 -3 37 -1
12 2 30 6 40 5 9 7 17 4 17 -7 0 -167 -197 -193 -238 -37 -57 79 70 123 136
19 28 36 52 38 52 2 0 4 -30 5 -67 1 -36 3 -69 5 -72 6 -10 -13 -203 -25 -256
-6 -27 -17 -63 -25 -80 l-13 -30 6 35 c3 19 11 57 19 84 8 27 12 51 10 53 -4
4 -29 -63 -47 -125 -9 -29 -15 -39 -21 -30 -5 8 -6 3 -2 -14 3 -14 0 -37 -7
-50 -7 -12 -14 -32 -16 -43 -2 -11 -8 -31 -13 -45 -5 -14 -24 -83 -41 -153
-28 -119 -31 -163 -9 -127 6 8 10 10 10 4 0 -17 -49 -46 -63 -38 -7 4 -9 4 -5
-1 4 -4 -2 -15 -14 -25 -34 -27 -1 -29 67 -4 33 13 52 23 43 23 -9 1 -38 -8
-65 -20 -26 -11 -43 -15 -37 -9 6 6 78 35 160 64 82 29 188 73 237 98 48 25
82 39 76 32 -16 -19 -5 -17 33 6 36 22 53 26 43 10 -7 -12 14 -4 108 38 37 17
67 33 67 36 0 5 -41 -11 -118 -46 -24 -11 -46 -18 -48 -15 -4 4 81 45 151 72
31 13 36 18 25 25 -8 5 -23 10 -33 10 -10 0 -24 15 -34 35 -9 19 -19 35 -22
35 -3 0 -16 -20 -29 -44 -13 -24 -35 -49 -50 -55 -27 -11 -27 -11 -6 6 26 21
42 51 58 106 l12 41 36 -56 c33 -49 42 -56 79 -61 23 -3 46 -10 51 -15 11 -11
11 -243 0 -252 -13 -9 -236 -282 -299 -366 -82 -108 -166 -248 -186 -309 -25
-76 -37 -177 -37 -324 0 -74 -2 -132 -4 -130 -3 3 -11 56 -17 119 l-13 115
-23 -105 c-49 -219 -40 -396 27 -538 34 -74 35 -92 1 -31 -13 22 -25 38 -27
36 -14 -14 105 -269 164 -352 l35 -50 -57 55 c-94 90 -168 198 -206 301 -6 19
-14 29 -17 22 -9 -23 40 -175 83 -261 41 -81 42 -85 14 -52 -144 167 -174 514
-75 893 33 126 76 242 137 361 60 120 59 118 273 375 201 241 207 248 200 281
-3 14 -6 60 -7 103 -1 43 -6 81 -12 84 -5 3 -6 1 -2 -5 3 -5 -13 -27 -36 -47
-26 -23 -32 -31 -15 -21 15 9 33 14 39 10 6 -4 8 -3 4 4 -3 6 -2 13 3 16 20
13 4 -25 -23 -52 -15 -16 -26 -35 -24 -43 2 -9 -4 -13 -14 -11 -13 2 -16 -2
-11 -15 6 -15 4 -16 -8 -6 -12 10 -17 8 -28 -9 -10 -16 -10 -19 1 -12 10 6 10
4 -1 -9 -7 -9 -16 -15 -20 -13 -10 7 -71 -50 -71 -65 0 -7 17 3 38 21 21 20
16 13 -12 -17 -39 -41 -53 -50 -66 -43 -11 6 -22 5 -31 -3 -7 -7 -3 0 10 15
13 15 29 25 35 21 6 -3 8 -3 4 2 -8 8 13 37 71 100 67 72 56 72 -15 -1 -38
-39 -76 -71 -85 -71 -15 0 -89 -40 -89 -48 0 -2 5 -7 12 -11 7 -5 8 -2 3 7 -5
8 -5 11 0 7 5 -5 23 4 42 18 18 14 33 23 33 21 0 -5 -166 -149 -232 -200 -27
-22 -47 -41 -44 -44 3 -3 31 16 63 42 32 27 67 56 78 64 l20 15 -20 -20 c-30
-32 -230 -211 -315 -283 -41 -35 -107 -93 -145 -130 -156 -147 -184 -155 -106
-31 15 23 15 24 -2 11 -24 -19 -22 2 3 24 22 20 25 72 3 53 -8 -6 -11 -13 -9
-16 3 -3 -5 -17 -17 -32 -12 -15 -28 -36 -35 -46 -7 -11 -5 -3 5 16 9 19 17
38 18 41 0 4 30 42 66 85 117 140 123 151 31 57 -75 -77 -88 -86 -76 -58 8 19
34 66 59 104 25 38 45 73 45 78 0 4 -15 -15 -33 -42 -39 -62 -77 -111 -77
-100 0 5 14 33 31 64 22 38 26 51 14 41 -17 -14 -18 -13 -12 3 4 10 7 26 7 35
0 13 2 14 9 4 6 -10 10 -6 15 15 4 15 13 35 19 43 7 9 2 5 -10 -8 -30 -30 -29
-21 2 26 13 20 26 47 28 59 1 11 8 27 13 35 18 22 53 118 45 118 -5 0 4 34 21
76 16 42 28 83 26 91 -2 9 -18 -20 -36 -64 -31 -78 -118 -216 -211 -338 -52
-67 -339 -365 -353 -365 -4 0 5 27 22 60 37 74 75 169 151 379 59 163 119 305
126 298 2 -3 -17 -62 -42 -132 -25 -70 -45 -132 -45 -139 1 -15 58 118 104
242 21 56 40 101 43 99 2 -2 -13 -46 -32 -97 -19 -51 -33 -95 -30 -98 2 -3 8
4 11 14 41 115 102 237 166 332 27 41 48 76 45 78 -2 3 -19 -18 -37 -46 -18
-27 -34 -50 -37 -50 -5 0 67 133 127 233 39 66 12 40 -41 -40 -97 -145 -289
-369 -289 -338 0 6 -11 -3 -25 -20 -23 -27 -23 -25 5 27 35 66 62 128 56 128
-2 0 -28 -44 -57 -97 -28 -54 -84 -136 -122 -183 -69 -82 -66 -84 18 -10 l40
35 -40 -44 c-36 -39 -94 -92 -354 -323 -131 -117 -280 -230 -293 -222 -6 4 -8
3 -5 -3 7 -10 -79 -91 -96 -91 -5 -1 -16 -9 -24 -19 -8 -10 0 9 18 42 53 97
209 368 215 374 7 6 -18 -48 -37 -82 -6 -11 -8 -21 -6 -23 3 -3 23 31 45 75
22 44 43 77 46 74 3 -4 6 0 6 9 0 8 14 41 32 73 17 32 26 55 20 51 -8 -5 -10
-2 -6 8 3 9 11 13 17 9 5 -3 7 -1 4 5 -8 12 2 44 12 38 3 -2 6 10 7 28 1 71
104 185 296 328 37 28 65 54 63 58 -3 5 18 34 47 65 l52 58 -58 -33 c-32 -19
-82 -39 -110 -47 l-51 -13 44 5 c38 5 19 -7 -127 -80 -94 -48 -177 -94 -184
-102 -7 -9 17 0 53 20 79 44 91 46 58 10 -14 -16 -50 -64 -79 -108 -62 -94
-133 -189 -168 -227 -50 -54 -11 -27 48 34 33 33 60 57 60 53 0 -5 7 0 15 11
26 35 17 -7 -16 -71 -31 -60 -94 -135 -113 -135 -6 0 8 19 29 43 l40 42 -42
-39 c-23 -22 -40 -43 -38 -47 6 -9 -64 -54 -85 -54 -8 0 -14 -6 -12 -13 1 -8
-1 -11 -6 -8 -5 3 -20 -6 -34 -19 -14 -13 -28 -22 -30 -19 -3 2 -33 -21 -69
-52 -146 -128 -251 -195 -495 -317 -107 -53 -389 -167 -415 -167 -8 0 28 26
78 57 50 32 90 59 89 60 -1 2 -58 -29 -127 -69 -68 -39 -164 -89 -214 -110
-93 -41 -416 -151 -422 -144 -2 2 40 27 94 56 171 92 456 269 688 428 133 91
146 102 78 68 -29 -14 -56 -26 -60 -26 -10 0 87 66 152 103 39 22 44 27 20 21
-58 -13 -160 -32 -163 -30 -1 2 15 11 35 22 124 64 337 193 330 200 -2 2 -33
-5 -69 -15 -36 -11 -77 -22 -89 -26 -13 -3 23 19 81 50 121 65 159 94 53 41
-40 -20 -75 -36 -79 -36 -4 0 48 37 115 81 66 45 118 85 115 90 -2 5 22 28 55
51 54 39 75 60 54 57 -5 -1 -53 -1 -108 0 -111 3 -111 3 45 51 96 29 303 124
369 168 14 10 51 29 81 42 67 29 81 40 52 40 -11 0 -45 5 -74 12 -53 11 -52
11 197 48 l250 37 80 61 c44 34 224 203 400 377 176 173 323 315 326 315 4 0
27 -11 52 -25z m94 -317 c-3 -8 -6 -5 -6 6 -1 11 2 17 5 13 3 -3 4 -12 1 -19z
m10 -85 c-3 -10 -5 -2 -5 17 0 19 2 27 5 18 2 -10 2 -26 0 -35z m50 15 c-3 -8
-6 -5 -6 6 -1 11 2 17 5 13 3 -3 4 -12 1 -19z m-70 -100 c-3 -7 -5 -2 -5 12 0
14 2 19 5 13 2 -7 2 -19 0 -25z m1101 -100 c73 -87 182 -235 222 -303 35 -61
11 -31 -68 82 -62 88 -112 153 -222 287 -13 16 -20 27 -14 23 7 -4 43 -44 82
-89z m-1173 -13 c-3 -31 -9 -55 -11 -52 -3 2 -2 30 2 61 4 31 9 54 12 52 2 -3
1 -30 -3 -61z m-815 -250 c0 -2 -10 -10 -22 -16 -21 -11 -22 -11 -9 4 13 16
31 23 31 12z m887 -87 c-3 -8 -6 -5 -6 6 -1 11 2 17 5 13 3 -3 4 -12 1 -19z
m-10 -60 c-3 -8 -6 -5 -6 6 -1 11 2 17 5 13 3 -3 4 -12 1 -19z m203 -62 c0 -2
-7 -7 -16 -10 -8 -3 -12 -2 -9 4 6 10 25 14 25 6z m89 -10 c-13 -11 -110 -56
-105 -48 3 5 19 15 36 22 16 7 30 15 30 19 0 4 10 7 21 8 12 1 20 0 18 -1z
m-159 -26 c-19 -11 -42 -19 -50 -19 -8 0 3 8 25 18 52 25 70 26 25 1z m-552
-225 c-6 -14 -13 -23 -15 -21 -5 5 15 46 22 46 3 0 -1 -11 -7 -25z m-428 -8
c0 -2 -10 -12 -22 -23 l-23 -19 19 23 c18 21 26 27 26 19z m-5 -83 c-44 -155
-134 -384 -165 -419 -10 -11 -25 -35 -34 -52 -17 -33 -30 -45 -20 -18 12 29
-4 14 -29 -27 -29 -50 -176 -223 -206 -244 -11 -8 -64 -66 -116 -129 -88 -105
-330 -344 -358 -354 -7 -2 12 22 41 53 66 72 163 219 206 311 18 39 61 149 96
245 75 208 119 308 149 334 21 19 21 19 21 0 0 -14 5 -10 21 15 27 45 35 33
15 -25 -25 -74 -11 -63 18 15 18 45 36 75 53 87 38 24 180 142 222 184 20 20
45 42 56 50 l20 15 -20 -25 c-17 -21 -18 -23 -1 -10 10 8 22 25 27 38 18 46
20 14 4 -44z m2469 -45 c20 -50 35 -93 33 -95 -2 -2 -18 33 -36 78 -18 46 -35
89 -38 96 -3 6 -3 12 0 12 3 0 21 -41 41 -91z m-1454 78 c0 -2 -12 -14 -27
-28 l-28 -24 24 28 c23 25 31 32 31 24z m-610 -11 c0 -3 -4 -8 -10 -11 -5 -3
-10 -1 -10 4 0 6 5 11 10 11 6 0 10 -2 10 -4z m-37 -81 c-3 -9 -8 -14 -10 -11
-3 3 -2 9 2 15 9 16 15 13 8 -4z m-543 -9 c0 -2 -8 -10 -17 -17 -16 -13 -17
-12 -4 4 13 16 21 21 21 13z m2700 -121 c0 -5 -5 -3 -10 5 -5 8 -10 20 -10 25
0 6 5 3 10 -5 5 -8 10 -19 10 -25z m-2269 -71 c-39 -128 -102 -225 -245 -373
l-71 -75 60 51 c33 28 68 60 79 72 10 11 23 18 29 14 5 -3 7 -2 4 4 -4 5 7 23
23 38 17 16 30 25 30 21 0 -29 -136 -170 -153 -159 -6 3 -7 1 -3 -5 18 -29
-302 -223 -542 -328 l-57 -25 30 28 c17 15 77 71 135 123 57 52 140 131 184
175 44 44 83 80 87 80 4 0 11 4 16 9 5 5 3 6 -4 2 -23 -13 -14 -1 29 39 41 38
42 39 13 5 l-30 -35 32 29 c18 16 30 32 28 36 -6 10 233 234 253 237 9 1 22
10 29 20 29 43 58 81 60 79 1 -1 -6 -29 -16 -62z m-1013 17 c4 -48 -73 -271
-94 -271 -2 0 0 9 6 20 6 11 9 20 6 20 -3 0 -17 -23 -31 -51 -23 -46 -149
-209 -162 -209 -3 0 6 13 19 29 47 60 63 87 65 110 1 13 7 29 13 35 22 22 9
28 -15 6 l-24 -23 20 54 c25 66 39 92 53 101 8 6 8 8 0 8 -6 0 -22 -15 -35
-34 -13 -19 -26 -30 -30 -25 -7 12 -49 -51 -49 -74 0 -9 -4 -19 -10 -22 -5 -3
-10 -15 -10 -25 0 -10 -4 -22 -10 -25 -6 -3 -7 1 -4 12 5 17 5 17 -6 0 -6 -9
-8 -23 -4 -30 4 -6 4 -9 -1 -5 -9 9 -35 -9 -35 -24 0 -6 8 -4 17 3 12 9 10 3
-5 -18 -13 -18 -28 -36 -35 -39 -7 -4 -3 2 7 14 11 12 17 25 14 28 -10 9 -80
-85 -72 -97 5 -8 3 -9 -5 -4 -7 4 -22 -1 -34 -13 -23 -20 -60 -42 -73 -42 -4
0 11 14 32 31 77 60 93 74 94 82 0 4 -19 -5 -42 -21 -73 -49 -153 -91 -173
-91 -11 0 -40 -4 -65 -10 -25 -5 -47 -8 -49 -6 -2 2 10 7 25 10 16 3 44 13 62
21 39 17 45 17 37 4 -15 -24 15 -6 61 36 29 27 37 38 19 26 -31 -20 -142 -72
-154 -72 -3 0 27 18 67 39 40 22 81 49 92 61 10 12 25 23 32 24 26 5 67 29 63
37 -3 4 0 11 6 15 8 4 9 3 5 -4 -18 -29 17 -7 75 49 35 33 58 58 52 54 -24
-12 -13 7 29 50 22 24 45 43 50 42 6 -1 14 8 19 21 11 30 -1 23 -66 -39 -57
-53 -135 -119 -141 -119 -22 0 175 228 236 272 36 27 56 49 28 32 -7 -4 -8 -3
-4 5 4 6 11 9 16 6 4 -2 20 5 36 17 15 13 25 17 21 10 -6 -8 -3 -10 7 -6 23 9
20 -2 -14 -52 -43 -62 -31 -55 19 11 42 55 52 77 27 56 -11 -9 -16 -9 -22 0
-4 7 -3 9 3 6 6 -4 13 0 17 8 9 24 22 17 24 -14z m-638 14 c0 -2 -10 -9 -22
-15 -22 -11 -22 -10 -4 4 21 17 26 19 26 11z m694 -39 c-3 -15 -8 -25 -11 -23
-2 3 -1 17 3 31 3 15 8 25 11 23 2 -3 1 -17 -3 -31z m-228 -49 c-17 -12 -45
-38 -64 -57 -31 -32 -32 -33 -16 -6 17 27 89 87 103 85 3 0 -7 -10 -23 -22z
m-86 -40 c0 -2 -10 -12 -22 -23 l-23 -19 19 23 c18 21 26 27 26 19z m-50 -42
c0 -2 -10 -9 -22 -15 -22 -11 -22 -10 -4 4 21 17 26 19 26 11z m1020 -69 c0
-2 -26 -25 -57 -51 l-58 -47 53 51 c50 47 62 57 62 47z m-526 -41 c-4 -8 -14
-15 -23 -15 -12 0 -13 -2 -3 -9 11 -7 11 -15 -2 -45 -10 -24 -20 -35 -27 -30
-8 5 -9 3 -5 -5 11 -17 -55 -114 -123 -181 -96 -96 -362 -286 -482 -345 l-54
-26 45 37 c94 78 240 233 313 333 64 88 89 113 162 162 90 62 106 70 84 42
-11 -16 -11 -16 1 -5 8 7 15 17 15 22 0 9 86 80 97 80 4 0 5 -7 2 -15z m331
-34 c-8 -17 -21 -33 -27 -37 -8 -5 -7 1 3 16 8 14 19 31 23 38 15 25 16 11 1
-17z m499 4 c-9 -14 -18 -25 -21 -25 -5 0 5 18 20 38 17 22 18 13 1 -13z
m2386 -29 c0 -39 -6 -30 -13 19 -4 27 -3 35 3 25 5 -8 10 -28 10 -44z m-3760
-41 c-18 -19 -35 -33 -38 -31 -4 4 59 65 67 66 3 0 -10 -16 -29 -35z m153 10
c4 -8 2 -17 -3 -20 -4 -3 -11 1 -13 7 -3 7 -8 -2 -12 -20 -4 -18 -11 -35 -16
-38 -5 -3 -6 3 -3 13 24 73 36 88 47 58z m3621 -40 c5 -22 4 -26 -4 -15 -5 8
-10 24 -10 34 0 26 6 18 14 -19z m-2960 0 c-9 -14 -18 -25 -21 -25 -5 0 5 18
20 38 17 22 18 13 1 -13z m-24 -39 c0 -2 -8 -10 -17 -17 -16 -13 -17 -12 -4 4
13 16 21 21 21 13z m2998 -61 l0 -30 -8 30 c-4 17 -8 39 -8 50 l-1 20 9 -20
c5 -11 8 -33 8 -50z m-2001 -67 c-3 -8 -6 -5 -6 6 -1 11 2 17 5 13 3 -3 4 -12
1 -19z m2015 -117 c1 -61 -2 -114 -5 -118 -4 -3 -7 49 -7 117 0 68 3 121 6
118 3 -3 6 -56 6 -117z m-3472 52 c-44 -39 -93 -75 -75 -56 22 23 107 93 112
93 4 0 -13 -17 -37 -37z m1410 -118 c-17 -81 -19 -84 -14 -30 6 66 25 146 30
130 2 -5 -5 -50 -16 -100z m-1391 92 c-2 -1 -15 -11 -29 -22 l-25 -20 19 23
c11 12 24 22 29 22 6 0 8 -1 6 -3z m-949 -102 c0 -2 -24 -19 -52 -38 -75 -47
-78 -49 -78 -43 0 5 120 86 127 86 2 0 3 -2 3 -5z m2297 -17 c-3 -8 -6 -5 -6
6 -1 11 2 17 5 13 3 -3 4 -12 1 -19z m-2231 1 l46 -12 -99 -65 c-158 -104
-326 -176 -508 -218 -11 -3 29 20 89 51 112 58 228 126 351 208 39 25 71 46
73 47 2 0 24 -5 48 -11z m104 -13 c0 -3 -53 -43 -117 -90 -174 -126 -165 -117
-123 -114 26 2 34 -1 32 -12 -2 -8 0 -11 5 -7 4 5 8 14 8 19 0 6 12 12 27 12
25 2 23 -1 -26 -49 -29 -27 -41 -40 -26 -27 48 41 45 23 -5 -29 l-50 -52 75
60 c41 33 85 66 98 73 23 11 23 11 7 -14 -10 -15 -22 -23 -29 -19 -6 4 -5 -1
3 -10 15 -19 16 -19 -64 -107 -31 -34 -32 -38 -8 -16 18 16 35 27 38 24 7 -6
-76 -82 -126 -115 -20 -13 -86 -41 -147 -62 -61 -21 -109 -41 -106 -44 3 -2
-6 -3 -18 -1 -13 3 -45 -2 -73 -10 l-50 -14 113 -1 c103 -1 248 15 347 39 22
5 41 7 43 5 6 -5 -105 -35 -192 -51 -169 -31 -169 -31 -91 -34 39 -1 74 -2 78
-1 5 1 6 -3 3 -8 -3 -5 -16 -7 -29 -4 -16 3 -18 2 -8 -5 13 -9 5 -13 -64 -28
-5 -1 -57 -15 -115 -32 -58 -16 -145 -37 -194 -47 -49 -9 -97 -19 -105 -22
-10 -4 -13 -3 -6 4 6 5 71 33 145 62 74 30 136 55 138 56 2 2 -41 4 -96 4 -87
1 -235 17 -354 37 -44 8 -51 24 -10 24 42 0 170 35 259 70 71 28 221 109 247
132 6 5 49 32 96 59 96 55 99 61 14 23 -72 -32 -251 -98 -242 -89 3 4 59 37
125 74 65 37 219 129 343 204 233 141 230 140 230 133z m2046 -38 c-4 -18 -9
-71 -12 -118 -3 -47 -9 -116 -13 -155 -4 -38 -6 -99 -5 -135 2 -36 4 -92 5
-125 2 -59 2 -59 10 25 5 47 13 135 19 195 9 100 57 328 59 280 1 -17 3 -17
11 -5 8 12 10 11 10 -7 0 -13 -3 -23 -7 -23 -5 0 -5 -48 -2 -107 7 -110 10
-130 21 -148 3 -5 11 -37 18 -70 33 -165 44 -206 71 -275 54 -135 176 -332
268 -432 29 -32 50 -58 47 -58 -3 0 -43 30 -88 66 -46 37 -70 53 -54 35 16
-17 28 -33 25 -35 -2 -2 -36 16 -74 42 -69 45 -184 152 -219 202 -9 14 -15 21
-13 15 2 -5 7 -19 12 -30 4 -11 9 -29 10 -40 2 -16 53 -154 100 -267 15 -36
-6 -16 -30 30 -15 27 -23 36 -20 22 3 -14 -8 0 -24 30 -37 68 -38 62 -6 -24
45 -120 86 -193 212 -376 9 -14 -12 2 -47 35 -62 59 -63 59 -30 15 l34 -45
-42 39 -41 39 43 -89 c24 -49 60 -113 80 -143 20 -29 36 -56 36 -59 0 -10
-120 124 -165 184 -49 65 -171 303 -202 394 -13 36 -20 52 -17 35 4 -16 8 -41
9 -55 2 -26 51 -145 68 -168 5 -7 7 -15 4 -18 -8 -9 -152 272 -182 356 -31 88
-75 289 -74 340 0 34 1 34 11 10 7 -14 26 -56 45 -94 18 -39 33 -76 33 -83 0
-7 4 -13 8 -13 5 0 19 -22 32 -50 13 -27 25 -48 27 -46 4 3 -21 77 -42 129 -4
9 -3 17 3 17 6 0 13 -14 17 -31 12 -54 14 -27 4 61 -5 46 -11 101 -12 122 -1
20 -5 40 -9 43 -3 3 -4 38 -2 78 2 51 0 66 -7 52 -7 -16 -8 -13 -4 14 3 18 6
75 7 125 l2 91 5 -75 6 -75 8 75 c4 41 9 83 10 93 1 9 5 17 9 17 4 0 8 12 8
28 0 30 31 172 38 172 3 0 2 -15 -2 -32z m71 10 c-3 -8 -6 -5 -6 6 -1 11 2 17
5 13 3 -3 4 -12 1 -19z m33 -43 c0 -5 -5 -3 -10 5 -5 8 -10 20 -10 25 0 6 5 3
10 -5 5 -8 10 -19 10 -25z m-13 -82 c-3 -10 -5 -4 -5 12 0 17 2 24 5 18 2 -7
2 -21 0 -30z m-661 -60 c-17 -182 -91 -471 -173 -673 -40 -96 -149 -320 -164
-335 -5 -5 24 61 66 147 80 166 134 315 159 438 17 82 15 102 -4 43 -7 -21
-25 -65 -40 -98 -16 -33 -36 -84 -45 -113 -15 -47 -19 -51 -33 -40 -15 11 -15
11 -5 -3 15 -19 6 -57 -30 -126 -14 -26 -31 -65 -37 -86 -6 -20 -16 -35 -21
-32 -5 4 -6 -2 -2 -11 4 -12 3 -15 -5 -10 -8 4 -15 -9 -23 -39 -11 -45 -32
-75 -22 -33 3 13 -4 7 -15 -14 -11 -21 -23 -50 -27 -65 -6 -28 -6 -28 25 7
l30 35 -31 -55 c-17 -30 -35 -60 -40 -66 -5 -6 -6 -14 -2 -17 3 -4 1 -7 -6 -7
-7 0 -9 -5 -5 -12 4 -7 3 -8 -4 -4 -9 5 -6 18 8 47 11 21 18 39 15 39 -10 0
-42 -76 -40 -97 1 -12 -2 -20 -6 -17 -4 2 -13 -4 -18 -15 -16 -29 -13 -38 5
-15 15 19 15 18 5 -2 -5 -11 -18 -27 -27 -35 -10 -8 -15 -9 -11 -2 4 6 3 14
-2 17 -5 4 -12 -8 -16 -25 -4 -17 -9 -28 -12 -25 -8 7 48 156 57 151 8 -5 51
120 74 215 30 124 58 245 60 265 2 11 8 45 14 75 7 30 19 91 28 135 16 81 61
188 94 222 10 11 20 28 24 39 3 10 15 30 26 44 15 19 13 8 -10 -43 -16 -38
-30 -74 -30 -80 0 -11 134 195 150 231 5 12 12 22 15 22 6 0 -13 -50 -24 -65
-5 -5 -13 -30 -19 -55 -5 -25 -13 -54 -16 -65 -5 -12 -2 -10 7 5 18 31 68 176
65 187 -3 10 33 93 40 93 3 0 2 -34 -2 -77z m-1536 43 c0 -2 -8 -10 -17 -17
-16 -13 -17 -12 -4 4 13 16 21 21 21 13z m-85 -56 c-10 -11 -23 -20 -29 -20
-6 0 0 9 14 20 32 25 38 25 15 0z m888 -72 c-31 -46 -63 -92 -72 -104 -31 -39
-104 -119 -96 -104 9 16 -84 -67 -98 -88 -4 -7 -12 -10 -18 -7 -5 4 -9 1 -9
-5 0 -6 -6 -17 -12 -23 -36 -33 -256 -171 -347 -217 -102 -51 -252 -113 -258
-107 -2 2 18 18 45 35 47 31 178 154 287 271 33 35 83 77 112 93 29 17 51 33
48 37 -2 4 17 18 43 30 60 29 243 143 347 215 44 31 80 56 82 56 1 0 -23 -37
-54 -82z m-828 -53 c-49 -47 -94 -85 -100 -85 -5 0 7 14 28 31 20 17 35 34 32
39 -3 4 2 13 10 20 8 7 15 9 15 6 0 -4 5 -4 11 0 8 5 8 8 0 13 -8 5 -4 14 11
26 13 11 17 13 11 5 -27 -30 -11 -31 25 -1 66 54 49 32 -43 -54z m32 -70 c0
-8 -4 -12 -8 -9 -4 2 -10 0 -14 -6 -3 -5 -11 -10 -17 -10 -7 0 26 35 38 40 0
0 1 -7 1 -15z m-57 0 c0 -8 -63 -45 -75 -45 -5 1 8 12 30 25 43 27 45 28 45
20z m-105 -45 c3 -5 1 -10 -4 -10 -6 0 -11 5 -11 10 0 6 2 10 4 10 3 0 8 -4
11 -10z m575 -4 c0 -2 -7 -7 -16 -10 -8 -3 -12 -2 -9 4 6 10 25 14 25 6z m784
-47 c-3 -5 -10 -7 -15 -3 -5 3 -7 10 -3 15 3 5 10 7 15 3 5 -3 7 -10 3 -15z
m-76 -56 c-2 -10 -10 -17 -18 -15 -11 3 -11 1 0 -13 12 -15 15 -14 26 7 22 38
16 14 -11 -47 -14 -32 -24 -59 -22 -62 3 -2 19 15 38 39 42 55 57 70 38 38 -9
-14 -40 -65 -69 -115 -56 -93 -127 -192 -237 -330 l-64 -80 59 63 c36 39 62
60 66 53 7 -11 -67 -85 -148 -146 -60 -47 -68 -44 -21 8 l40 42 -42 -39 c-23
-22 -40 -42 -38 -46 7 -12 -153 -122 -166 -114 -8 4 -9 3 -5 -4 4 -7 -2 -16
-16 -22 -13 -6 -43 -23 -68 -39 -25 -16 -48 -30 -53 -30 -4 -1 14 25 39 57 59
73 73 86 45 42 l-23 -35 27 30 c54 61 116 155 110 165 -4 6 -1 9 7 8 7 -2 13
6 13 17 1 11 7 19 14 17 7 -1 10 2 6 8 -4 6 21 57 56 113 78 129 108 169 120
162 5 -3 6 0 3 8 -3 9 16 36 48 69 29 30 36 36 16 13 -37 -39 -52 -69 -25 -46
8 6 18 7 22 3 5 -4 5 -2 2 4 -7 12 158 169 177 169 6 0 11 7 11 15 0 16 25 48
38 49 5 1 7 -7 5 -16z m-578 -58 c-67 -67 -55 -73 15 -7 37 35 41 37 15 9 -50
-56 -143 -125 -159 -119 -9 3 -11 0 -6 -8 5 -9 4 -11 -3 -6 -7 4 -12 2 -12 -5
0 -7 -3 -9 -7 -6 -6 6 50 61 167 165 55 49 50 37 -10 -23z m1307 -2 c-3 -10
-5 -4 -5 12 0 17 2 24 5 18 2 -7 2 -21 0 -30z m-1138 10 c-25 -31 -82 -78 -95
-78 -7 0 -16 -4 -21 -9 -5 -5 -2 -6 7 -1 9 5 12 4 7 -1 -5 -5 -16 -9 -25 -9
-9 0 -17 -7 -17 -15 0 -8 -9 -15 -20 -15 -11 0 -19 -6 -17 -13 1 -8 -2 -11 -7
-7 -6 3 -41 -13 -78 -36 -152 -94 -184 -111 -189 -107 -3 3 14 17 38 30 80 47
233 143 282 178 26 19 51 34 55 34 3 -1 24 14 46 32 45 38 54 42 34 17z m1089
-165 c-2 -42 0 -74 5 -71 4 2 7 -30 7 -71 0 -42 -4 -76 -9 -76 -4 0 -11 -62
-14 -137 -4 -91 -15 -177 -31 -253 -35 -157 -44 -189 -46 -165 -1 19 -2 19 -9
1 -9 -23 -22 37 -47 204 -17 119 -25 400 -13 475 l7 50 -1 -62 c-1 -33 1 -59
6 -56 4 2 8 16 8 31 2 38 7 10 14 -81 7 -78 24 -98 26 -29 1 20 5 48 9 62 5
16 8 -19 9 -95 1 -123 14 -180 25 -114 10 56 26 286 26 369 0 42 3 106 7 141
l7 64 9 -55 c4 -30 7 -89 5 -132z m189 140 c-3 -7 -5 -2 -5 12 0 14 2 19 5 13
2 -7 2 -19 0 -25z m-145 -138 c7 0 9 18 6 50 -3 28 -1 53 3 56 12 7 11 -303
-1 -448 -10 -121 -52 -400 -69 -453 -9 -28 -9 -28 -10 -5 0 14 6 75 14 135 8
61 15 126 15 145 0 23 3 30 9 22 7 -11 10 -10 15 3 9 26 7 42 -4 25 -8 -12
-10 -10 -10 8 0 13 4 20 10 17 9 -6 15 136 10 268 -1 28 3 47 9 47 6 0 11 7
11 15 0 8 -4 15 -10 15 -5 0 -10 16 -10 36 0 25 3 33 13 28 7 -5 6 -1 -3 10
-13 17 -14 17 -22 -1 -5 -11 -6 2 -3 31 3 27 6 70 7 95 1 29 3 19 5 -26 2 -44
8 -73 15 -73z m-2197 61 c-38 -21 -69 -43 -68 -49 2 -6 -3 -9 -10 -6 -7 2 -22
-4 -34 -15 -11 -11 -24 -17 -29 -13 -4 4 -4 2 -1 -4 3 -6 -29 -26 -79 -49 -46
-21 -83 -40 -81 -42 7 -6 154 55 197 82 23 14 46 23 52 19 7 -4 8 -3 4 4 -9
15 70 55 95 49 11 -3 17 -1 13 4 -3 5 1 9 9 9 8 0 20 7 27 15 16 20 11 19 -46
-5 -26 -11 -48 -19 -50 -17 -2 2 23 15 56 30 33 14 57 21 54 15 -5 -7 0 -9 15
-5 19 5 21 3 9 -11 -9 -12 -2 -10 25 6 45 26 44 26 44 7 0 -19 -86 -84 -165
-125 -33 -18 -124 -54 -203 -80 -147 -50 -176 -66 -53 -30 210 62 306 101 412
165 23 14 42 24 42 21 0 -8 -142 -94 -192 -116 -27 -11 -48 -23 -48 -25 0 -7
94 32 131 54 20 12 42 18 56 15 15 -4 33 3 58 21 48 37 36 45 -15 10 -22 -15
-43 -26 -45 -23 -3 3 17 19 45 36 27 17 50 26 50 21 0 -6 8 -8 18 -5 9 3 4 -6
-13 -20 -221 -189 -496 -296 -828 -320 -67 -5 -87 -4 -87 6 0 10 -4 9 -17 -1
-9 -8 -14 -9 -10 -3 4 8 -18 14 -71 19 -172 15 -173 17 -17 55 144 35 253 83
435 191 59 35 337 145 375 148 6 0 -21 -17 -60 -38z m1724 -30 c-7 -23 -14
-39 -16 -37 -3 2 1 23 8 45 7 23 14 39 16 37 3 -2 -1 -23 -8 -45z m658 -13
c-3 -8 -6 -5 -6 6 -1 11 2 17 5 13 3 -3 4 -12 1 -19z m-2681 -23 c-33 -14 -62
-25 -65 -24 -12 1 94 49 109 48 8 0 -12 -11 -44 -24z m1224 1 c0 -2 -8 -10
-17 -17 -16 -13 -17 -12 -4 4 13 16 21 21 21 13z m750 -107 c-35 -73 -35 -70
0 24 14 38 26 62 28 54 1 -7 -11 -42 -28 -78z m-232 40 c-28 -47 -127 -165
-145 -173 -32 -14 -17 16 37 75 33 35 60 60 60 54 0 -5 14 11 31 38 38 58 50
62 17 6z m-608 6 c0 -2 -10 -9 -22 -15 -22 -11 -22 -10 -4 4 21 17 26 19 26
11z m-2360 -70 c0 -8 -2 -15 -4 -15 -2 0 -6 7 -10 15 -3 8 -1 15 4 15 6 0 10
-7 10 -15z m4100 -35 c6 -11 8 -20 6 -20 -3 0 -10 9 -16 20 -6 11 -8 20 -6 20
3 0 10 -9 16 -20z m-994 -149 c-31 -61 -58 -111 -61 -111 -3 0 21 52 52 115
32 63 59 113 61 111 2 -2 -22 -54 -52 -115z m-918 13 c-35 -31 -79 -68 -98
-83 -42 -31 -242 -189 -286 -225 -18 -14 -35 -26 -40 -26 -4 0 -17 -8 -28 -17
-11 -10 -7 -2 9 19 17 20 42 42 57 48 15 7 25 16 23 21 -3 4 4 13 16 19 21 12
246 181 344 260 74 59 75 49 3 -16z m211 34 c-6 -11 -18 -22 -27 -25 -24 -8
-52 -34 -52 -47 0 -6 9 0 20 14 11 14 20 21 20 15 0 -17 -127 -151 -136 -142
-4 4 14 31 42 60 l49 52 -50 -45 c-27 -25 -53 -49 -57 -55 -5 -7 -8 -7 -8 0 0
17 168 177 179 171 6 -4 9 -1 5 7 -3 8 1 14 10 14 12 0 13 -5 5 -19z m-2299
-114 c12 -36 20 -67 17 -70 -4 -4 -47 114 -47 129 0 21 11 0 30 -59z m1220 32
c-32 -17 -47 -21 -52 -12 -7 10 -11 3 -5 -10 5 -12 -50 -32 -108 -39 -58 -6
-59 -6 -31 9 15 9 32 13 37 10 5 -3 6 1 3 9 -7 18 26 31 40 17 8 -8 6 -9 -7
-4 -13 5 -16 2 -11 -10 4 -11 11 -13 24 -6 9 5 21 6 26 2 5 -4 2 1 -5 10 -15
20 -14 21 59 36 72 15 78 13 30 -12z m-214 -16 c-22 -11 -47 -20 -55 -21 -9
-1 -5 -5 9 -9 14 -4 19 -8 12 -9 -17 -1 -98 -61 -95 -70 1 -4 -25 -21 -57 -36
-33 -16 -56 -33 -53 -38 4 -6 0 -8 -10 -4 -10 3 -17 2 -17 -2 0 -5 -33 -8 -72
-6 -44 1 -65 -1 -53 -6 43 -17 -37 -9 -117 12 -72 18 -208 72 -208 82 0 2 33
-5 73 -16 46 -12 107 -20 172 -20 96 -1 105 1 205 42 58 23 112 51 120 61 14
17 45 30 120 49 58 15 67 11 26 -9z m-229 3 c-9 -2 -14 -9 -10 -15 4 -8 0 -9
-11 -5 -10 4 -45 8 -79 8 -50 1 -55 3 -27 8 42 7 152 11 127 4z m2952 -48 c0
-5 -6 1 -14 15 -8 14 -14 30 -14 35 0 6 6 -1 14 -15 8 -14 14 -29 14 -35z
m-2712 19 c-3 -3 -12 -4 -19 -1 -8 3 -5 6 6 6 11 1 17 -2 13 -5z m1334 -37
c-16 -24 -38 -50 -48 -58 -21 -16 -18 -12 37 59 43 54 49 54 11 -1z m1246 11
c-3 -8 -6 -5 -6 6 -1 11 2 17 5 13 3 -3 4 -12 1 -19z m-2122 -18 c-8 -16 -26
-37 -40 -46 -13 -8 -22 -21 -19 -29 3 -7 1 -16 -5 -20 -7 -4 -8 1 -4 12 6 16
5 17 -13 4 -10 -8 -2 3 19 23 21 21 45 49 54 62 22 34 27 30 8 -6z m-335 8
c-14 -6 -50 -22 -80 -36 -77 -35 -179 -69 -231 -76 -41 -6 -36 -3 53 43 54 27
105 50 115 50 10 0 47 6 83 14 80 18 92 19 60 5z m245 -8 c-16 -11 -27 -20
-23 -20 4 0 -10 -17 -30 -37 -38 -38 -38 -38 -3 -8 21 17 10 2 -24 -35 -71
-79 -83 -91 -65 -65 14 18 14 19 -2 6 -10 -7 -16 -16 -13 -20 11 -19 -159
-156 -178 -144 -6 3 -7 1 -3 -5 20 -33 -257 -143 -511 -202 -51 -11 -168 -22
-160 -14 6 6 230 134 330 188 48 26 91 45 96 41 5 -3 17 5 25 17 9 12 16 19
16 15 0 -5 13 0 29 9 17 10 28 21 25 26 -3 4 -1 8 5 8 6 0 41 20 78 45 37 25
72 45 80 45 12 0 95 43 193 99 25 14 48 25 52 23 4 -1 26 10 50 23 51 30 76
33 33 5z m2468 -117 c44 -57 83 -101 86 -98 11 6 75 -64 109 -121 18 -28 43
-79 56 -115 38 -100 91 -211 135 -283 22 -37 36 -64 32 -62 -30 19 -272 369
-286 414 -14 47 -20 17 -18 -95 1 -98 0 -111 -8 -73 -17 77 -82 310 -86 307
-2 -2 1 -28 7 -57 24 -124 40 -303 39 -425 l-1 -130 -14 65 c-8 36 -25 101
-38 145 -14 44 -34 141 -46 215 -11 74 -28 171 -37 215 -9 44 -17 101 -19 126
-1 26 -5 62 -8 80 -6 30 -5 31 5 14 7 -11 48 -66 92 -122z m-1769 105 c-6 -15
-55 -51 -184 -135 -167 -109 -267 -166 -283 -160 -7 3 7 13 30 24 24 11 40 23
35 27 -4 4 0 6 8 5 18 -4 106 47 93 53 -4 3 -2 3 5 2 17 -5 93 46 86 57 -3 5
1 6 8 4 8 -3 25 5 38 17 14 13 27 22 30 22 3 -1 4 2 2 8 -1 5 2 7 8 3 15 -9
41 20 29 32 -6 6 -4 15 8 24 16 13 17 12 5 -3 -24 -31 7 -30 45 1 42 35 44 36
37 19z m860 -23 c-9 -14 -18 -25 -21 -25 -5 0 5 18 20 38 17 22 18 13 1 -13z
m-824 9 c0 -14 -76 -73 -88 -69 -7 3 -11 1 -8 -4 12 -19 -178 -146 -368 -245
-140 -75 -173 -83 -43 -12 45 25 75 46 67 46 -8 0 -2 7 14 15 15 8 33 12 39 8
5 -3 7 -2 4 4 -4 6 16 24 44 42 55 34 64 37 53 19 -4 -7 -3 -8 5 -4 6 4 9 11
6 16 -5 8 13 21 145 105 25 16 58 41 75 57 27 26 55 37 55 22z m1597 -16 c-3
-8 -6 -5 -6 6 -1 11 2 17 5 13 3 -3 4 -12 1 -19z m-1757 -11 c0 -2 -10 -12
-22 -23 l-23 -19 19 23 c18 21 26 27 26 19z m1798 -32 c-3 -3 -9 2 -12 12 -6
14 -5 15 5 6 7 -7 10 -15 7 -18z m-2621 -1 c-3 -3 -12 -4 -19 -1 -8 3 -5 6 6
6 11 1 17 -2 13 -5z m2590 -26 c-3 -7 -5 -2 -5 12 0 14 2 19 5 13 2 -7 2 -19
0 -25z m-2657 2 c-8 -5 -22 -9 -30 -9 -10 0 -8 3 5 9 27 12 43 12 25 0z m296
-7 c-2 -10 -7 -18 -12 -18 -5 0 -16 -4 -24 -9 -8 -5 -4 3 9 17 29 32 30 32 27
10z m-761 -54 c12 -12 7 -12 -56 7 -75 22 -85 36 -13 18 32 -9 63 -20 69 -25z
m2660 22 c-3 -5 -1 -12 4 -16 6 -3 7 -13 4 -22 -4 -11 -3 -14 5 -9 8 5 26 -23
52 -79 43 -93 46 -100 29 -89 -7 4 -10 1 -7 -7 3 -8 10 -15 16 -15 22 -3 23
-4 11 -25 -6 -13 -7 -19 -1 -15 6 3 13 -7 17 -23 5 -22 11 -28 22 -24 10 4 14
2 9 -5 -3 -6 -2 -13 4 -17 15 -9 12 -25 -4 -19 -22 8 -78 93 -70 106 4 6 3 8
-3 5 -12 -8 -33 35 -33 67 0 13 -7 29 -15 36 -18 15 -20 34 -2 25 6 -4 4 0 -7
9 -11 9 -16 22 -12 31 3 9 2 14 -3 11 -10 -6 -32 70 -23 79 9 8 14 6 7 -4z
m-2412 -8 c-7 -2 -19 -2 -25 0 -7 3 -2 5 12 5 14 0 19 -2 13 -5z m-50 -10 c-7
-2 -19 -2 -25 0 -7 3 -2 5 12 5 14 0 19 -2 13 -5z m507 4 c0 -2 -12 -14 -27
-28 l-28 -24 24 28 c23 25 31 32 31 24z m-590 -11 c0 -3 -4 -8 -10 -11 -5 -3
-10 -1 -10 4 0 6 5 11 10 11 6 0 10 -2 10 -4z m910 -16 c-56 -42 -66 -52 -47
-46 24 8 21 3 -15 -24 -31 -22 -32 -22 -14 -2 23 27 8 29 -25 4 -38 -28 -79
-53 -79 -47 0 5 192 135 200 134 3 0 -6 -8 -20 -19z m2117 -12 c-3 -7 -5 -2
-5 12 0 14 2 19 5 13 2 -7 2 -19 0 -25z m-3070 16 c-3 -3 -12 -4 -19 -1 -8 3
-5 6 6 6 11 1 17 -2 13 -5z m72 -18 c-15 -13 -49 -25 -49 -17 0 5 8 12 18 14
24 6 36 8 31 3z m956 -5 c3 -5 2 -12 -3 -15 -5 -3 -9 1 -9 9 0 17 3 19 12 6z
m374 -48 c-38 -63 -91 -123 -102 -116 -5 3 -7 2 -4 -4 9 -15 -119 -134 -207
-193 -43 -29 -76 -48 -72 -42 3 6 38 32 76 57 39 26 67 51 64 57 -4 6 6 21 21
34 17 15 25 29 21 39 -3 9 -2 13 4 10 5 -3 19 8 31 25 13 16 31 33 42 36 10 3
16 12 14 19 -3 7 17 34 44 61 28 27 47 41 43 32 -9 -25 13 -23 26 2 6 11 13
20 16 20 3 0 -5 -17 -17 -37z m-1400 23 c-2 -2 -15 -9 -29 -15 -24 -11 -24
-11 -6 3 16 13 49 24 35 12z m3098 -83 c6 -51 -2 -58 -10 -8 -3 17 -8 44 -12
60 -5 24 -4 26 4 13 6 -9 14 -38 18 -65z m-3578 -48 c0 -5 -8 6 -19 25 -11 19
-19 40 -19 45 0 6 8 -6 19 -25 11 -19 19 -39 19 -45z m5 59 c3 -8 2 -12 -4 -9
-6 3 -10 10 -10 16 0 14 7 11 14 -7z m3007 -8 c9 5 13 -9 10 -35 -2 -8 2 -10
10 -5 9 5 10 2 6 -9 -3 -10 -2 -17 3 -17 5 0 11 -9 15 -20 3 -11 31 -52 61
-92 44 -58 47 -64 15 -31 -21 24 -42 48 -44 55 -4 10 -8 9 -17 -2 -9 -12 -10
-11 -5 8 3 12 2 22 -3 22 -9 0 -73 123 -71 137 0 5 3 2 6 -5 2 -6 9 -10 14 -6z
m-1722 1 c-2 -1 -13 -9 -24 -17 -19 -14 -19 -14 -6 3 7 9 18 17 24 17 6 0 8
-1 6 -3z m88 -12 c-15 -8 -40 -23 -54 -35 -14 -11 -31 -20 -37 -20 -6 0 3 8
19 18 17 11 36 26 44 35 7 10 23 17 35 17 18 0 18 -2 -7 -15z m-1326 -12 c13
-16 12 -17 -3 -4 -10 7 -18 15 -18 17 0 8 8 3 21 -13z m3072 -84 c61 -81 111
-131 121 -122 3 4 6 1 6 -6 0 -7 5 -9 10 -6 6 3 10 -2 10 -12 0 -11 5 -24 12
-31 8 -8 9 -12 1 -12 -16 0 -138 135 -183 200 -74 110 -65 106 23 -11z m-1743
76 c0 -2 -20 -18 -45 -35 -25 -17 -45 -29 -45 -26 0 4 80 64 88 66 1 0 2 -2 2
-5z m205 -15 c-10 -11 -24 -20 -32 -20 -8 0 -11 -4 -8 -10 4 -6 -1 -7 -12 -3
-15 6 -16 4 -5 -9 11 -14 0 -24 -83 -77 -53 -34 -101 -58 -107 -55 -6 4 -8 3
-5 -3 6 -10 -9 -19 -80 -49 -29 -13 -33 -12 -33 1 0 8 3 14 8 13 14 -4 93 53
86 63 -3 6 3 5 15 -3 15 -9 26 -10 38 -2 21 13 29 34 13 34 -6 0 -8 -4 -5 -10
3 -5 2 -10 -4 -10 -5 0 -16 -3 -25 -6 -9 -3 -16 -1 -16 6 0 6 5 8 10 5 6 -3
10 -3 10 2 0 4 15 17 33 27 81 49 212 125 216 126 2 0 -4 -9 -14 -20z m389
-32 c-31 -61 -204 -272 -204 -249 0 5 7 14 15 21 8 7 15 18 15 24 0 6 -11 -2
-24 -19 -13 -16 -22 -34 -18 -40 3 -5 2 -7 -3 -3 -10 10 -37 -11 -30 -23 3 -4
-29 -35 -72 -68 -43 -34 -84 -66 -91 -72 -7 -6 -16 -8 -20 -4 -4 4 -2 9 3 11
19 7 166 117 162 121 -3 2 -41 -21 -86 -52 -44 -31 -86 -53 -91 -50 -6 4 -9 2
-8 -4 2 -6 -7 -17 -19 -24 -182 -104 -226 -127 -230 -124 -2 3 18 18 46 34 51
28 64 43 36 43 -8 0 -15 -5 -15 -10 0 -6 -10 -8 -24 -4 -13 3 -27 1 -30 -4 -3
-6 2 -9 11 -8 10 2 12 1 6 -1 -7 -3 -13 -10 -13 -16 0 -8 -4 -7 -9 2 -8 12
-13 12 -33 -2 -63 -46 -68 -45 -19 1 30 28 58 49 63 46 4 -3 8 -1 8 3 0 5 17
17 38 27 20 10 54 27 75 37 21 11 42 17 47 14 6 -3 7 1 4 9 -3 9 -1 16 4 16 6
0 17 6 25 14 7 8 39 30 70 50 62 40 69 47 35 38 -14 -3 -19 -2 -14 6 4 7 14
12 22 12 8 0 14 5 14 10 0 16 -13 11 -45 -16 -22 -18 -24 -23 -10 -18 17 5 17
3 -4 -16 -13 -11 -31 -18 -38 -16 -8 3 -11 2 -8 -3 6 -10 -132 -107 -141 -99
-3 3 16 18 41 33 60 34 51 46 -9 12 -60 -34 -59 -25 1 12 34 21 50 26 55 18 5
-9 12 -7 25 6 17 17 17 18 -2 11 -14 -5 -17 -4 -10 3 14 15 382 263 390 263 3
0 3 -5 -1 -12 -4 -7 -3 -8 5 -4 6 4 9 11 6 16 -6 9 77 57 83 49 2 -2 8 4 13
14 18 31 20 18 3 -15z m1630 -43 c3 -25 3 -33 -3 -20 -12 29 -22 93 -12 75 5
-8 11 -33 15 -55z m-572 10 c3 -14 1 -22 -5 -18 -10 6 1 -39 13 -47 6 -5 18
-44 41 -134 16 -63 2 -53 -17 12 -13 45 -22 59 -33 55 -14 -4 -14 -4 -1 6 10
8 12 13 4 19 -13 8 -28 108 -19 122 9 15 12 12 17 -15z m315 3 c-3 -8 -6 -5
-6 6 -1 11 2 17 5 13 3 -3 4 -12 1 -19z m-2117 -12 c0 -2 -7 -7 -16 -10 -8 -3
-12 -2 -9 4 6 10 25 14 25 6z m25 -14 c-14 -12 -65 -32 -65 -26 0 3 15 11 33
19 37 17 45 18 32 7z m2333 -147 c23 -90 49 -226 87 -459 17 -100 41 -201 66
-274 21 -64 37 -117 35 -119 -4 -4 -130 251 -141 287 -7 20 -11 8 -26 -64 -20
-96 -35 -129 -25 -56 3 25 8 99 10 165 l5 120 -10 -95 c-16 -161 -47 -312 -99
-484 -28 -91 -50 -167 -50 -170 0 -4 -4 -6 -9 -6 -5 0 -5 16 -1 38 26 115 60
521 60 701 0 68 2 122 5 119 3 -2 7 -57 9 -122 1 -64 5 -119 8 -121 5 -5 10
64 25 345 5 110 8 127 15 91 8 -47 18 -66 18 -35 0 26 -29 253 -35 279 -3 11
3 2 13 -20 10 -22 28 -76 40 -120z m-3461 108 c-14 -14 -19 -15 -29 -4 -7 8
-8 11 -3 8 6 -3 17 -2 25 4 23 14 26 11 7 -8z m-46 -10 c13 -16 12 -17 -3 -4
-10 7 -18 15 -18 17 0 8 8 3 21 -13z m1079 13 c0 -2 -8 -10 -17 -17 -16 -13
-17 -12 -4 4 13 16 21 21 21 13z m140 -31 c0 -2 -10 -9 -22 -15 -22 -11 -22
-10 -4 4 21 17 26 19 26 11z m1817 -135 l-4 -35 -2 40 c-1 22 -8 49 -16 59 -8
11 -15 29 -15 40 0 14 8 5 21 -24 12 -27 18 -58 16 -80z m-62 -9 c8 -30 10
-50 6 -45 -10 11 -31 97 -30 121 1 15 2 15 6 -2 2 -11 11 -44 18 -74z m-1851
64 c3 -8 1 -15 -4 -15 -6 0 -10 7 -10 15 0 8 2 15 4 15 2 0 6 -7 10 -15z m-49
-15 c-3 -5 -14 -10 -23 -10 -15 0 -15 2 -2 10 20 13 33 13 25 0z m2005 -38 c0
-15 -2 -15 -10 -2 -13 20 -13 33 0 25 6 -3 10 -14 10 -23z m-2140 13 c0 -6
-83 -46 -87 -41 -2 2 16 13 39 24 49 24 48 24 48 17z m2077 -67 c-3 -8 -6 -5
-6 6 -1 11 2 17 5 13 3 -3 4 -12 1 -19z m-598 -30 c-6 -22 -30 -89 -55 -147
-43 -102 -64 -138 -64 -114 0 7 5 15 10 18 6 4 8 11 5 16 -4 5 -2 9 3 9 9 0
25 41 27 67 0 7 6 18 13 25 14 14 16 32 2 23 -6 -3 -7 1 -4 9 3 9 10 13 15 10
8 -5 13 10 10 30 -1 4 3 14 9 20 5 7 7 15 4 19 -5 4 23 57 31 57 2 0 -1 -19
-6 -42z m595 -70 c9 -52 0 -48 -12 5 -5 23 -13 51 -16 62 -5 12 -2 10 7 -5 8
-14 17 -42 21 -62z m26 22 c0 -11 -2 -20 -4 -20 -2 0 -6 9 -9 20 -3 11 -1 20
4 20 5 0 9 -9 9 -20z m-690 -30 c-6 -11 -13 -20 -16 -20 -2 0 0 9 6 20 6 11
13 20 16 20 2 0 0 -9 -6 -20z m-1071 6 c-2 -2 -15 -9 -29 -15 -24 -11 -24 -11
-6 3 16 13 49 24 35 12z m1146 -86 c-13 -41 -24 -68 -25 -59 0 18 41 142 46
137 2 -2 -8 -37 -21 -78z m-975 52 c0 -9 -119 -87 -176 -115 -17 -9 -34 -13
-38 -10 -3 4 -6 1 -6 -5 0 -17 -54 -42 -69 -32 -9 5 7 18 50 40 35 18 69 36
76 42 7 5 18 6 24 2 8 -4 9 -3 5 4 -4 7 -2 12 4 12 6 0 28 11 50 25 22 14 40
23 40 19 0 -3 7 2 16 10 17 18 24 20 24 8z m1615 -13 c-5 -14 -3 -19 3 -15 6
4 8 -2 4 -16 -5 -22 -5 -22 -14 2 -9 23 -5 50 7 50 4 0 3 -10 0 -21z m-756
-33 c-29 -49 -36 -46 -8 4 12 22 24 38 26 36 2 -2 -6 -20 -18 -40z m740 -36
c0 -8 -7 1 -14 20 -18 46 -17 64 0 25 8 -16 14 -37 14 -45z m-678 -13 c-10 -9
-11 -8 -5 6 3 10 9 15 12 12 3 -3 0 -11 -7 -18z m-98 -17 c-3 -11 -10 -23 -16
-27 -5 -3 -8 -2 -5 3 3 5 8 17 11 27 9 24 16 22 10 -3z m-1118 -19 c-16 -10
-41 -22 -55 -25 -14 -4 -5 4 20 18 53 29 79 34 35 7z m2002 -13 c-3 -8 -6 -5
-6 6 -1 11 2 17 5 13 3 -3 4 -12 1 -19z m-917 -27 c-5 -11 -15 -23 -21 -27 -6
-3 -3 5 6 20 20 30 30 35 15 7z m-1184 -6 c-11 -8 -25 -15 -30 -15 -6 1 0 7
14 15 32 19 40 18 16 0z m94 5 c8 -5 11 -10 5 -11 -43 -3 -68 -10 -104 -28
-22 -12 -41 -19 -41 -16 0 5 107 62 120 64 3 0 12 -4 20 -9z m1120 -14 c0 -3
-4 -8 -10 -11 -5 -3 -10 -1 -10 4 0 6 5 11 10 11 6 0 10 -2 10 -4z m30 0 c0
-3 -4 -8 -10 -11 -5 -3 -10 -1 -10 4 0 6 5 11 10 11 6 0 10 -2 10 -4z m-112
-91 c-6 -14 -13 -23 -15 -21 -5 5 15 46 22 46 3 0 -1 -11 -7 -25z m13 -32
c-12 -20 -14 -14 -5 12 4 9 9 14 11 11 3 -2 0 -13 -6 -23z m-14 -45 c-3 -8 -6
-5 -6 6 -1 11 2 17 5 13 3 -3 4 -12 1 -19z m-62 -90 c-19 -36 -35 -74 -35 -84
0 -11 -5 -26 -10 -34 -7 -11 -9 -9 -7 11 2 31 81 200 85 184 2 -6 -13 -41 -33
-77z m-55 -36 c0 -5 -7 -17 -16 -28 -8 -10 -14 -14 -11 -9 2 6 7 18 10 28 7
17 17 23 17 9z m-39 -79 c-12 -20 -14 -14 -5 12 4 9 9 14 11 11 3 -2 0 -13 -6
-23z m24 -22 c-3 -12 -10 -21 -15 -21 -5 0 -4 11 2 25 13 29 23 26 13 -4z
m-42 -16 c-3 -9 -8 -14 -10 -11 -3 3 -2 9 2 15 9 16 15 13 8 -4z m3 -43 c-17
-16 -18 -16 -5 5 7 12 15 20 18 17 3 -2 -3 -12 -13 -22z m-16 -30 c0 -5 -7
-17 -15 -28 -14 -18 -14 -17 -4 9 12 27 19 34 19 19z m1045 -432 c3 -5 -1 -10
-10 -10 -9 0 -13 5 -10 10 3 6 8 10 10 10 2 0 7 -4 10 -10z m58 3 c-7 -2 -19
-2 -25 0 -7 3 -2 5 12 5 14 0 19 -2 13 -5z m104 -59 c-3 -3 -12 -4 -19 -1 -8
3 -5 6 6 6 11 1 17 -2 13 -5z"/>
<path d="M790 5079 c-7 -11 -10 -23 -7 -25 2 -2 9 7 15 21 14 30 7 33 -8 4z"/>
<path d="M480 4184 c0 -8 5 -12 10 -9 6 3 10 10 10 16 0 5 -4 9 -10 9 -5 0
-10 -7 -10 -16z"/>
<path d="M471 4094 c0 -11 3 -14 6 -6 3 7 2 16 -1 19 -3 4 -6 -2 -5 -13z"/>
<path d="M542 3180 c0 -14 2 -19 5 -12 2 6 2 18 0 25 -3 6 -5 1 -5 -13z"/>
<path d="M520 3125 c0 -8 4 -15 10 -15 5 0 7 7 4 15 -4 8 -8 15 -10 15 -2 0
-4 -7 -4 -15z"/>
<path d="M528 3069 c2 -16 7 -31 11 -34 4 -2 5 9 3 26 -2 16 -7 31 -11 34 -4
2 -5 -9 -3 -26z"/>
<path d="M681 2900 c0 -8 4 -22 9 -30 12 -18 12 -2 0 25 -6 13 -9 15 -9 5z"/>
<path d="M570 2789 c0 -5 5 -7 10 -4 6 3 10 8 10 11 0 2 -4 4 -10 4 -5 0 -10
-5 -10 -11z"/>
<path d="M6576 2721 c-10 -35 -16 -65 -13 -67 6 -7 39 104 35 118 -2 6 -12
-16 -22 -51z"/>
<path d="M581 2763 c0 -5 9 -26 20 -48 18 -37 17 -18 -2 33 -8 21 -20 31 -18
15z"/>
<path d="M6536 2595 c-9 -26 -7 -32 5 -12 6 10 9 21 6 23 -2 3 -7 -2 -11 -11z"/>
<path d="M6506 2450 c-22 -56 -19 -65 5 -11 11 24 18 46 15 48 -2 2 -11 -14
-20 -37z"/>
<path d="M5499 1253 c-13 -16 -12 -17 4 -4 9 7 17 15 17 17 0 8 -8 3 -21 -13z"/>
<path d="M4840 770 c-19 -11 -31 -19 -27 -20 11 0 67 29 67 35 0 7 -1 7 -40
-15z"/>
<path d="M4700 710 c-8 -5 -10 -10 -5 -10 6 0 17 5 25 10 8 5 11 10 5 10 -5 0
-17 -5 -25 -10z"/>
<path d="M4605 671 c-22 -11 -33 -20 -25 -20 8 0 31 8 50 19 45 25 27 25 -25
1z"/>
<path d="M4229 666 c-2 -2 -21 -6 -43 -9 -21 -3 -43 -11 -50 -18 -8 -9 -7 -10
9 -5 11 4 42 12 69 17 27 5 52 11 54 14 6 6 -33 7 -39 1z"/>
<path d="M4894 5958 l-19 -23 23 19 c12 11 22 21 22 23 0 8 -8 2 -26 -19z"/>
<path d="M4910 5845 c0 -27 3 -46 6 -42 3 3 6 22 6 42 0 20 -3 39 -6 42 -3 4
-6 -15 -6 -42z"/>
<path d="M4765 5730 c-10 -11 -13 -20 -7 -20 6 0 16 9 22 20 6 11 9 20 7 20
-2 0 -12 -9 -22 -20z"/>
<path d="M4892 5720 c0 -14 2 -19 5 -12 2 6 2 18 0 25 -3 6 -5 1 -5 -13z"/>
<path d="M4764 5614 c-3 -16 -15 -60 -25 -98 -10 -38 -17 -71 -15 -74 4 -3 20
50 46 147 6 23 9 45 6 48 -3 3 -8 -8 -12 -23z"/>
<path d="M4556 5468 l-18 -33 21 25 c18 22 26 40 18 40 -1 0 -11 -15 -21 -32z"/>
<path d="M4298 5438 c-56 -86 -88 -138 -84 -138 5 0 77 104 95 138 6 12 10 22
8 22 -3 0 -11 -10 -19 -22z"/>
<path d="M4322 5427 c-15 -18 -73 -149 -64 -143 5 3 17 23 27 45 10 22 22 38
28 34 6 -3 7 -1 3 5 -4 6 0 25 9 42 16 31 15 39 -3 17z"/>
<path d="M4370 5299 c-40 -51 -68 -89 -61 -85 6 4 37 40 68 79 77 98 76 97 71
97 -2 0 -37 -41 -78 -91z"/>
<path d="M4661 5244 c0 -11 3 -14 6 -6 3 7 2 16 -1 19 -3 4 -6 -2 -5 -13z"/>
<path d="M4239 5148 c-12 -23 -12 -23 10 -4 23 21 26 26 11 26 -5 0 -15 -10
-21 -22z"/>
<path d="M4624 5133 c-3 -10 -12 -33 -20 -51 -8 -18 -14 -40 -14 -50 1 -20 25
32 39 83 9 35 5 50 -5 18z"/>
<path d="M4651 5129 c-65 -167 -99 -271 -84 -256 16 16 106 268 98 275 -2 3
-8 -6 -14 -19z"/>
<path d="M4380 5105 c-7 -9 -11 -17 -9 -20 3 -2 10 5 17 15 14 24 10 26 -8 5z"/>
<path d="M3360 5024 c-160 -89 -185 -109 -75 -59 74 33 215 119 215 130 0 7 7
11 -140 -71z"/>
<path d="M5114 5054 c-18 -14 -18 -15 4 -4 12 6 22 13 22 15 0 8 -5 6 -26 -11z"/>
<path d="M5209 5043 c-13 -16 -12 -17 4 -4 9 7 17 15 17 17 0 8 -8 3 -21 -13z"/>
<path d="M3115 5005 c-16 -13 -25 -24 -20 -24 6 0 24 11 40 24 17 14 26 25 20
25 -5 0 -23 -11 -40 -25z"/>
<path d="M3716 5005 c-9 -26 -7 -32 5 -12 6 10 9 21 6 23 -2 3 -7 -2 -11 -11z"/>
<path d="M4571 4992 c-6 -12 -11 -29 -11 -39 1 -11 7 -4 16 16 16 37 12 55 -5
23z"/>
<path d="M3943 4915 c-40 -39 -73 -75 -73 -79 0 -4 35 26 77 68 43 41 75 77
73 79 -3 2 -38 -28 -77 -68z"/>
<path d="M5119 4963 l-24 -28 28 24 c15 14 27 26 27 28 0 8 -8 1 -31 -24z"/>
<path d="M4870 4949 c0 -5 5 -7 10 -4 6 3 10 8 10 11 0 2 -4 4 -10 4 -5 0 -10
-5 -10 -11z"/>
<path d="M3338 4882 c-37 -26 -151 -92 -253 -147 -102 -55 -200 -113 -218
-128 l-32 -29 35 21 c42 24 99 46 85 33 -5 -5 -44 -32 -85 -59 -129 -85 -164
-110 -210 -153 l-45 -41 45 27 c24 15 73 47 107 71 34 23 65 43 69 43 3 0 27
17 53 38 25 21 64 48 86 60 l40 22 -29 -23 c-93 -71 -129 -104 -132 -119 -2
-19 13 -14 51 17 20 16 20 16 -2 6 -31 -16 -42 -13 -14 3 14 8 30 12 36 10 6
-3 44 26 85 63 l75 68 -40 -50 -39 -50 37 34 c20 19 37 31 37 26 0 -5 7 0 16
11 20 25 6 -3 -19 -38 -11 -15 -25 -24 -31 -21 -6 3 -8 3 -4 -2 4 -4 1 -17 -7
-29 -34 -47 -11 -35 55 30 39 38 70 73 70 79 0 5 -9 -1 -20 -15 -11 -14 -20
-20 -20 -14 0 13 35 46 42 39 2 -3 25 19 49 47 24 29 79 90 123 136 43 45 77
82 75 81 -2 0 -34 -22 -71 -47z m-218 -266 c0 -2 -8 -10 -17 -17 -16 -13 -17
-12 -4 4 13 16 21 21 21 13z"/>
<path d="M4266 4915 c-9 -26 -7 -32 5 -12 6 10 9 21 6 23 -2 3 -7 -2 -11 -11z"/>
<path d="M4755 4915 c-16 -8 -23 -14 -15 -14 8 0 26 6 40 14 32 18 15 18 -25
0z"/>
<path d="M4795 4910 c-22 -10 -95 -45 -163 -76 -67 -32 -120 -59 -119 -61 2
-2 53 20 113 47 175 82 230 109 219 109 -5 0 -28 -9 -50 -19z"/>
<path d="M3706 4853 c-31 -31 -37 -34 -31 -15 3 12 4 22 1 22 -9 0 -33 -53
-39 -88 -11 -56 -47 -127 -161 -317 l-18 -30 21 24 c11 12 42 59 68 102 26 43
50 79 55 79 4 0 5 7 1 15 -3 9 -2 15 3 14 5 -1 52 39 104 91 52 51 82 83 65
72 -16 -11 -39 -30 -50 -42 -11 -12 -37 -36 -59 -53 -37 -30 -38 -30 -31 -7 4
13 14 30 21 38 16 16 18 26 4 17 -5 -3 -10 -2 -10 4 0 5 3 11 8 13 10 5 97 98
91 98 -2 0 -22 -17 -43 -37z m-85 -180 c-12 -20 -14 -14 -5 12 4 9 9 14 11 11
3 -2 0 -13 -6 -23z"/>
<path d="M4920 4858 c-56 -38 -257 -200 -329 -265 -48 -44 -52 -50 -37 -62 14
-12 16 -12 11 1 -7 18 56 81 160 159 69 53 221 173 240 190 18 18 -1 8 -45
-23z"/>
<path d="M5130 4870 c-8 -5 -12 -12 -9 -15 4 -3 12 1 19 10 14 17 11 19 -10 5z"/>
<path d="M3359 4853 c-13 -16 -12 -17 4 -4 9 7 17 15 17 17 0 8 -8 3 -21 -13z"/>
<path d="M4989 4858 c-5 -18 -6 -38 -1 -34 7 8 12 36 6 36 -2 0 -4 -1 -5 -2z"/>
<path d="M3839 4823 c-13 -16 -12 -17 4 -4 16 13 21 21 13 21 -2 0 -10 -8 -17
-17z"/>
<path d="M4744 4824 c-18 -14 -18 -15 4 -4 12 6 22 13 22 15 0 8 -5 6 -26 -11z"/>
<path d="M4328 4758 c-65 -79 -130 -169 -125 -174 2 -2 30 29 61 71 34 45 61
73 68 69 6 -4 8 -3 5 3 -6 10 25 59 48 75 7 5 6 8 -1 8 -6 0 -31 -24 -56 -52z"/>
<path d="M3306 4788 c3 -5 -2 -19 -13 -31 -17 -20 -17 -21 0 -8 27 21 39 48
22 48 -8 0 -12 -4 -9 -9z"/>
<path d="M3464 4778 l-19 -21 28 18 c28 18 33 25 19 25 -5 0 -17 -10 -28 -22z"/>
<path d="M4801 4724 c-64 -53 -58 -59 7 -7 26 21 49 39 51 40 2 2 2 5 0 7 -2
3 -28 -15 -58 -40z"/>
<path d="M3249 4703 c-43 -48 -62 -73 -57 -73 3 0 24 23 47 50 45 53 52 69 10
23z"/>
<path d="M4709 4643 c-13 -16 -12 -17 4 -4 16 13 21 21 13 21 -2 0 -10 -8 -17
-17z"/>
<path d="M4744 4588 l-29 -33 33 29 c30 28 37 36 29 36 -2 0 -16 -15 -33 -32z"/>
<path d="M4661 4520 c-13 -11 -19 -20 -14 -20 6 0 18 9 28 20 23 25 17 25 -14
0z"/>
<path d="M3476 4503 c-6 -14 -5 -15 5 -6 7 7 10 15 7 18 -3 3 -9 -2 -12 -12z"/>
<path d="M4574 4447 c-23 -17 -50 -37 -60 -44 -15 -9 -12 -9 14 0 18 6 47 26
64 44 40 42 34 42 -18 0z"/>
<path d="M4436 4425 c-3 -8 -1 -17 3 -20 5 -3 11 2 15 10 3 8 1 17 -3 20 -5 3
-11 -2 -15 -10z"/>
<path d="M4384 4268 l-29 -33 33 29 c17 17 32 31 32 33 0 8 -8 1 -36 -29z"/>
<path d="M3652 4440 c0 -14 2 -19 5 -12 2 6 2 18 0 25 -3 6 -5 1 -5 -13z"/>
<path d="M3807 4350 c-10 -16 -16 -30 -14 -30 2 0 13 14 25 30 13 17 19 30 14
30 -4 0 -16 -13 -25 -30z"/>
<path d="M3745 4291 c-3 -12 -11 -21 -16 -21 -5 0 -8 -3 -7 -7 1 -5 -6 -23
-16 -42 -15 -28 -20 -32 -27 -19 -6 10 -5 27 1 42 5 14 6 26 1 26 -12 0 -32
-50 -25 -63 4 -7 4 -9 -1 -5 -6 6 -45 -54 -106 -164 -18 -33 -2 -18 25 23 15
22 30 38 33 35 4 -3 15 8 25 24 21 35 23 44 6 34 -7 -5 -8 -3 -4 5 5 7 11 10
14 7 3 -3 11 -1 19 5 7 6 13 8 13 3 0 -5 9 5 21 21 30 45 61 106 56 112 -3 2
-8 -5 -12 -16z"/>
<path d="M3770 4290 c-6 -11 -8 -20 -6 -20 3 0 10 9 16 20 6 11 8 20 6 20 -3
0 -10 -9 -16 -20z"/>
<path d="M3414 3828 l-19 -23 23 19 c12 11 22 21 22 23 0 8 -8 2 -26 -19z"/>
<path d="M4210 4455 c-24 -25 -42 -45 -39 -45 3 0 25 20 49 45 24 25 42 45 39
45 -3 0 -25 -20 -49 -45z"/>
<path d="M3285 4489 c-4 -6 -5 -12 -2 -15 2 -3 7 2 10 11 7 17 1 20 -8 4z"/>
<path d="M3253 4443 c-3 -10 -17 -42 -30 -72 -26 -59 -30 -80 -8 -40 21 38 56
129 50 129 -3 0 -8 -8 -12 -17z"/>
<path d="M3160 4229 c-7 -11 -10 -23 -7 -25 2 -2 9 7 15 21 14 30 7 33 -8 4z"/>
<path d="M3465 4229 c-4 -6 -5 -12 -2 -15 2 -3 7 2 10 11 7 17 1 20 -8 4z"/>
<path d="M3139 3933 c-13 -16 -12 -17 4 -4 16 13 21 21 13 21 -2 0 -10 -8 -17
-17z"/>
<path d="M3049 3813 c-13 -16 -12 -17 4 -4 16 13 21 21 13 21 -2 0 -10 -8 -17
-17z"/>
<path d="M2388 3490 c-14 -10 -28 -17 -31 -14 -3 3 -4 -1 -3 -10 4 -27 12 -26
41 4 34 35 29 49 -7 20z m2 -14 c0 -2 -8 -10 -17 -17 -16 -13 -17 -12 -4 4 13
16 21 21 21 13z"/>
<path d="M2239 3313 c-13 -16 -12 -17 4 -4 9 7 17 15 17 17 0 8 -8 3 -21 -13z"/>
<path d="M4543 3485 c0 -22 2 -30 4 -17 2 12 2 30 0 40 -3 9 -5 -1 -4 -23z"/>
<path d="M4512 3355 c0 -16 2 -22 5 -12 2 9 2 23 0 30 -3 6 -5 -1 -5 -18z"/>
<path d="M4691 3274 c0 -11 3 -14 6 -6 3 7 2 16 -1 19 -3 4 -6 -2 -5 -13z"/>
<path d="M4506 2740 c3 -14 11 -32 16 -40 6 -10 7 -7 2 10 -3 14 -11 32 -16
40 -6 10 -7 7 -2 -10z"/>
<path d="M4531 2675 c0 -5 6 -21 14 -35 8 -14 14 -20 14 -15 0 6 -6 21 -14 35
-8 14 -14 21 -14 15z"/>
<path d="M3750 3168 c-6 -29 -22 -87 -36 -128 -13 -41 -39 -137 -58 -213 -20
-77 -38 -149 -41 -160 -3 -12 3 -6 14 13 19 36 146 529 138 537 -3 2 -10 -20
-17 -49z"/>
<path d="M3490 2331 c0 -6 4 -13 10 -16 6 -3 7 1 4 9 -7 18 -14 21 -14 7z"/>
<path d="M3577 3163 c-3 -5 -2 -15 2 -22 7 -10 10 -10 16 -1 4 6 3 16 -3 22
-5 5 -12 6 -15 1z"/>
<path d="M3550 3136 c0 -2 8 -10 18 -17 15 -13 16 -12 3 4 -13 16 -21 21 -21
13z"/>
<path d="M3431 3039 c-7 -12 -10 -23 -8 -26 3 -3 11 5 17 17 6 12 10 23 8 25
-2 2 -10 -5 -17 -16z"/>
<path d="M3261 2857 c-13 -21 -12 -21 5 -5 10 10 16 20 13 22 -3 3 -11 -5 -18
-17z"/>
<path d="M3223 2798 c-15 -20 -25 -38 -20 -38 3 0 12 11 21 25 17 26 16 35 -1
13z"/>
<path d="M3344 2748 c-4 -7 -14 -23 -22 -35 -8 -13 -12 -23 -9 -23 9 0 50 61
44 66 -3 3 -8 -1 -13 -8z"/>
<path d="M3286 2714 c-16 -20 -24 -35 -17 -33 11 4 58 69 49 69 -1 0 -16 -16
-32 -36z"/>
<path d="M2938 3059 l-33 -31 38 27 c20 15 37 29 37 31 0 10 -12 2 -42 -27z"/>
<path d="M4280 2843 c-3 -29 -1 -48 3 -44 5 5 7 28 5 52 l-3 44 -5 -52z"/>
<path d="M4161 2384 c0 -11 3 -14 6 -6 3 7 2 16 -1 19 -3 4 -6 -2 -5 -13z"/>
<path d="M4171 2294 c0 -11 3 -14 6 -6 3 7 2 16 -1 19 -3 4 -6 -2 -5 -13z"/>
<path d="M4201 2264 c0 -11 3 -14 6 -6 3 7 2 16 -1 19 -3 4 -6 -2 -5 -13z"/>
<path d="M4331 2924 c0 -11 3 -14 6 -6 3 7 2 16 -1 19 -3 4 -6 -2 -5 -13z"/>
<path d="M2263 3035 c-29 -19 -53 -37 -53 -40 0 -5 100 52 115 66 21 21 -13 6
-62 -26z"/>
<path d="M2138 3004 c-38 -20 -36 -28 2 -9 17 9 36 13 42 9 7 -4 8 -3 4 4 -9
15 -15 15 -48 -4z"/>
<path d="M3509 2853 c-13 -16 -12 -17 4 -4 16 13 21 21 13 21 -2 0 -10 -8 -17
-17z"/>
<path d="M1656 2507 c-16 -12 -16 -13 2 -13 10 0 19 6 19 13 0 7 -1 13 -2 13
-1 0 -9 -6 -19 -13z"/>
<path d="M1989 2503 c-13 -16 -12 -17 4 -4 9 7 17 15 17 17 0 8 -8 3 -21 -13z"/>
<path d="M1899 2433 c-13 -16 -12 -17 4 -4 9 7 17 15 17 17 0 8 -8 3 -21 -13z"/>
<path d="M1969 2433 c-13 -16 -12 -17 4 -4 9 7 17 15 17 17 0 8 -8 3 -21 -13z"/>
<path d="M1859 2403 c-13 -16 -12 -17 4 -4 9 7 17 15 17 17 0 8 -8 3 -21 -13z"/>
<path d="M1734 2324 c-18 -14 -18 -15 4 -4 12 6 22 13 22 15 0 8 -5 6 -26 -11z"/>
<path d="M1634 2264 c-18 -14 -18 -15 4 -4 12 6 22 13 22 15 0 8 -5 6 -26 -11z"/>
<path d="M1604 2214 c-18 -14 -18 -15 4 -4 12 6 22 13 22 15 0 8 -5 6 -26 -11z"/>
<path d="M1230 2075 c-14 -8 -20 -14 -15 -14 6 0 21 6 35 14 14 8 21 14 15 14
-5 0 -21 -6 -35 -14z"/>
<path d="M1200 2035 c-19 -7 -28 -14 -20 -14 8 0 29 6 45 14 39 17 21 18 -25
0z"/>
<path d="M4650 2324 c0 -5 7 -19 15 -30 8 -10 15 -14 15 -8 0 5 -7 19 -15 30
-8 10 -15 14 -15 8z"/>
<path d="M2769 2483 c-13 -16 -12 -17 4 -4 9 7 17 15 17 17 0 8 -8 3 -21 -13z"/>
<path d="M2731 2276 c-9 -11 -9 -15 0 -18 7 -2 9 -10 5 -16 -10 -16 -29 -15
-20 1 4 6 3 9 -1 4 -5 -4 -9 -16 -10 -27 -2 -20 -1 -20 22 2 13 12 22 29 21
37 -2 9 3 15 10 13 8 -1 11 2 7 8 -9 14 -20 13 -34 -4z"/>
<path d="M2604 2118 c2 -7 -4 -19 -13 -26 -14 -11 -13 -12 6 -2 12 5 25 15 29
22 4 6 3 8 -4 4 -5 -3 -13 -1 -15 4 -3 6 -4 5 -3 -2z"/>
<path d="M2404 2129 c-19 -22 -19 -22 4 -10 12 6 22 16 22 21 0 15 -5 12 -26
-11z"/>
<path d="M2360 2100 c-9 -6 -10 -10 -3 -10 6 0 15 5 18 10 8 12 4 12 -15 0z"/>
<path d="M2310 2069 c0 -5 5 -7 10 -4 6 3 10 8 10 11 0 2 -4 4 -10 4 -5 0 -10
-5 -10 -11z"/>
<path d="M2849 2142 c-8 -11 -18 -20 -24 -21 -9 -1 -11 -5 -14 -41 -1 -13 -3
-13 -12 0 -9 13 -10 13 -6 -1 3 -9 2 -21 -1 -26 -4 -5 3 2 16 15 12 13 20 27
17 32 -3 5 3 11 14 15 11 3 22 13 25 22 10 24 0 27 -15 5z"/>
<path d="M2727 2059 c-12 -10 -17 -18 -10 -19 6 0 15 5 18 10 4 6 10 8 15 5 4
-3 13 1 19 8 17 21 -17 17 -42 -4z"/>
<path d="M2663 2017 c-17 -17 -20 -26 -12 -37 9 -13 10 -12 5 3 -4 12 2 20 19
27 14 5 25 14 25 20 0 15 -13 11 -37 -13z"/>
<path d="M2754 2008 l-19 -23 23 19 c12 11 22 21 22 23 0 8 -8 2 -26 -19z"/>
<path d="M2606 1984 c-11 -7 -16 -17 -13 -21 4 -4 15 1 24 10 22 21 14 30 -11
11z"/>
<path d="M2560 1950 c0 -5 -3 -9 -7 -7 -5 1 -9 -1 -10 -5 -4 -10 -1 -11 20 -3
18 8 24 25 7 25 -5 0 -10 -4 -10 -10z"/>
<path d="M2280 1715 c0 -5 5 -17 10 -25 5 -8 10 -10 10 -5 0 6 -5 17 -10 25
-5 8 -10 11 -10 5z"/>
<path d="M2165 1560 c-3 -6 1 -7 9 -4 18 7 21 14 7 14 -6 0 -13 -4 -16 -10z"/>
</g>
</svg>
